<?xml version="1.0" standalone="no"?>
<!DOCTYPE svg PUBLIC "-//W3C//DTD SVG 20010904//EN"
 "http://www.w3.org/TR/2001/REC-SVG-20010904/DTD/svg10.dtd">
<svg version="1.0" xmlns="http://www.w3.org/2000/svg"
 width="100.000000pt" height="100.000000pt" viewBox="0 0 100.000000 100.000000"
 preserveAspectRatio="xMidYMid meet">
<metadata>
Created by potrace 1.16, written by Peter Selinger 2001-2019
</metadata>
<g transform="translate(0.000000,100.000000) scale(0.100000,-0.100000)"
fill="#000000" stroke="none">
<path d="M425 731 c-154 -71 -150 -280 8 -346 48 -20 53 -55 7 -55 -27 0 -30
-3 -30 -30 0 -27 3 -30 30 -30 25 0 30 -4 30 -25 0 -21 5 -25 30 -25 25 0 30
4 30 25 0 21 5 25 30 25 27 0 30 3 30 30 0 27 -3 30 -30 30 -46 0 -41 35 7 55
161 67 161 283 1 350 -49 20 -94 19 -143 -4z m166 -24 c54 -36 79 -82 79 -144
0 -30 -7 -67 -15 -82 -19 -38 -71 -81 -107 -88 -50 -10 -47 -83 3 -83 27 0 24
-18 -3 -22 -13 -2 -27 -13 -33 -25 -5 -13 -12 -23 -15 -23 -3 0 -10 10 -15 23
-6 12 -20 23 -32 25 -28 4 -31 22 -4 22 50 0 53 73 3 83 -36 7 -88 50 -107 88
-8 15 -15 52 -15 82 0 62 25 108 79 144 47 32 135 32 182 0z"/>
</g>
</svg>
