<?xml version="1.0" standalone="no"?>
<!DOCTYPE svg PUBLIC "-//W3C//DTD SVG 20010904//EN"
 "http://www.w3.org/TR/2001/REC-SVG-20010904/DTD/svg10.dtd">
<svg version="1.0" xmlns="http://www.w3.org/2000/svg"
 width="100.000000pt" height="100.000000pt" viewBox="0 0 100.000000 100.000000"
 preserveAspectRatio="xMidYMid meet">
<metadata>
Created by potrace 1.16, written by Peter Selinger 2001-2019
</metadata>
<g transform="translate(0.000000,100.000000) scale(0.100000,-0.100000)"
fill="#000000" stroke="none">
<path d="M560 710 c0 -28 3 -30 37 -30 l38 0 -41 -40 -40 -41 -37 16 c-91 38
-194 -5 -238 -100 -24 -51 -24 -99 0 -150 70 -151 272 -151 342 0 24 51 24 99
0 151 l-19 42 39 38 39 38 0 -37 c0 -34 2 -37 30 -37 l30 0 0 90 0 90 -90 0
-90 0 0 -30z m160 -60 c0 -40 -4 -70 -10 -70 -5 0 -10 13 -10 29 0 48 -19 47
-70 -4 l-47 -46 19 -37 c25 -48 21 -140 -8 -179 -41 -54 -70 -68 -144 -68 -74
0 -103 14 -144 69 -17 21 -21 42 -21 96 0 74 14 103 68 144 36 26 121 33 171
12 l38 -16 45 44 c53 49 54 76 3 76 -16 0 -30 5 -30 10 0 6 30 10 70 10 l70 0
0 -70z"/>
</g>
</svg>
